:SAMPLES-PER-SECOND 30
:FULLY-SPECIFIED
:DEGREES
257
root  -22.8434 6.82441 -16.4962 170.245 0.481232 -168.857
RightUpLeg  -83.6455 -10.4852 10.293
RightLeg  156.066 8.60416 -4.20304
RightFoot  -49.6335 3.0373 7.15246
RightToes  -6.06875 -0.0192791 -0.0557284
Spine  25.94 -3.28438 1.38012
Spine1  38.416 -16.4956 12.8328
HEad  -92.5914 7.98402 2.94094
LeftShoulder1  -1.94126e-019 -3.10601e-018 -2.51263e-017
LeftArm  -0.0647927 -66.4424 -89.5941
LeftForeArm  26.0569 -5.45879 -0.946906
LeftHand  -0.476278 -0.000208452 10.0613
RightShoulder  -4.96962e-017 0 -2.36833e-017
RightArm  23.7844 63.3262 120.969
RightForeArm  75.8041 79.7016 63.3034
RightHand  -0.367012 0.98243 -6.80462
LeftUpLeg  -86.505 8.93431 23.1648
LeftLeg  160.891 -2.02497 0.854031
LeftFoot  -49.4114 -3.87733 -8.25423
LeftToes  -9.93549 2.03064e-006 1.83538e-008
258
root  -22.8353 6.82832 -16.4891 170.222 0.606995 -168.839
RightUpLeg  -83.7012 -10.4212 10.4237
RightLeg  156.034 8.60897 -4.21157
RightFoot  -49.5682 3.01668 7.11751
RightToes  -5.93322 -0.0188307 -0.0552759
Spine  25.9358 -3.28843 1.36956
Spine1  38.3972 -16.5274 12.8386
HEad  -92.5938 7.6625 2.69374
LeftShoulder1  -1.94126e-019 -3.10601e-018 -2.51263e-017
LeftArm  -0.0242513 -66.4314 -89.6655
LeftForeArm  26.122 -5.53403 -0.959904
LeftHand  -0.478117 -0.0863284 10.0343
RightShoulder  -4.96962e-017 0 -2.36833e-017
RightArm  24.0617 63.2541 121.088
RightForeArm  76.2763 79.7035 62.7118
RightHand  -0.41273 0.992615 -7.62672
LeftUpLeg  -86.4376 8.92169 23.2027
LeftLeg  160.883 -2.17237 0.916272
LeftFoot  -49.4021 -3.93623 -8.38352
LeftToes  -9.80243 2.03064e-006 1.83538e-008
259
root  -22.8155 6.83437 -16.4877 170.167 0.785904 -168.8
RightUpLeg  -83.6467 -10.2245 10.6275
RightLeg  155.987 8.68244 -4.25844
RightFoot  -49.5919 3.03721 7.15859
RightToes  -5.6862 -0.0183983 -0.054777
Spine  25.9719 -3.23537 1.3731
Spine1  38.4501 -16.4341 12.8561
HEad  -92.9871 7.24032 2.69026
LeftShoulder1  -1.94126e-019 -3.10601e-018 -2.51263e-017
LeftArm  -0.018003 -66.5066 -89.9046
LeftForeArm  26.2469 -5.5737 -0.966785
LeftHand  -0.477174 -0.084894 10.0744
RightShoulder  -4.96962e-017 0 -2.36833e-017
RightArm  24.3528 63.264 121.305
RightForeArm  75.0863 79.5747 61.1292
RightHand  -0.438442 0.959579 -8.13367
LeftUpLeg  -86.219 9.0167 23.4762
LeftLeg  160.874 -2.08274 0.87902
LeftFoot  -49.413 -3.92453 -8.35607
LeftToes  -10.0731 2.03064e-006 1.83538e-008
260
root  -22.8032 6.83601 -16.488 170.13 0.854431 -168.795
RightUpLeg  -83.6068 -10.1486 10.7309
RightLeg  155.968 8.72165 -4.28226
RightFoot  -49.6247 3.05002 7.18143
RightToes  -5.61296 -0.0179873 -0.0542173
Spine  25.9964 -3.20034 1.3699
Spine1  38.4943 -16.3494 12.8398
HEad  -93.3584 6.46534 2.76894
LeftShoulder1  -1.94126e-019 -3.10601e-018 -2.51263e-017
LeftArm  0.152254 -66.5646 -90.1482
LeftForeArm  26.3078 -5.69269 -0.987881
LeftHand  -0.477227 -0.0582163 10.0674
RightShoulder  -4.96962e-017 0 -2.36833e-017
RightArm  24.4402 63.2905 121.404
RightForeArm  73.8471 79.4498 59.894
RightHand  -0.436379 0.899995 -8.16755
LeftUpLeg  -86.1112 9.03276 23.5821
LeftLeg  160.868 -2.09266 0.883466
LeftFoot  -49.4239 -3.93954 -8.38643
LeftToes  -10.0848 2.03064e-006 1.83538e-008
261
root  -22.7775 6.83989 -16.4975 169.98 1.02434 -168.791
RightUpLeg  -83.421 -9.93912 10.9401
RightLeg  155.946 8.87232 -4.3644
RightFoot  -49.6961 3.10758 7.29542
RightToes  -5.38855 -0.0176035 -0.0536204
Spine  26.0804 -3.10773 1.3494
Spine1  38.6265 -16.193 12.8448
HEad  -93.6589 5.89631 3.01493
LeftShoulder1  -1.94126e-019 -3.10601e-018 -2.51263e-017
LeftArm  0.498274 -66.6084 -90.3946
LeftForeArm  26.3309 -5.79601 -1.00596
LeftHand  -0.477782 -0.110269 10.0508
RightShoulder  -4.96962e-017 0 -2.36833e-017
RightArm  24.5208 63.3188 121.485
RightForeArm  73.2112 79.3605 58.8532
RightHand  -0.449533 1.03548 -8.2443
LeftUpLeg  -85.7254 9.19675 23.9485
LeftLeg  160.857 -1.86573 0.788505
LeftFoot  -49.4952 -3.89871 -8.28428
LeftToes  -10.3498 2.03064e-006 1.83538e-008
262
root  -22.7695 6.84254 -16.4962 169.952 0.985764 -168.789
RightUpLeg  -83.398 -9.96304 10.9953
RightLeg  155.943 8.91201 -4.38557
RightFoot  -49.7067 3.11996 7.32063
RightToes  -5.32051 -0.0172522 -0.0530101
Spine  26.0734 -3.12019 1.35308
Spine1  38.6031 -16.2283 12.8657
HEad  -93.9996 5.52722 3.23939
LeftShoulder1  -1.94126e-019 -3.10601e-018 -2.51263e-017
LeftArm  0.547611 -66.6003 -90.4725
LeftForeArm  26.3912 -5.86075 -1.01734
LeftHand  -0.479232 -0.150686 9.99763
RightShoulder  -4.96962e-017 0 -2.36833e-017
RightArm  24.5924 63.2695 121.459
RightForeArm  73.6567 79.3859 58.8815
RightHand  -0.460074 1.13468 -8.31461
LeftUpLeg  -85.7358 9.17337 23.9987
LeftLeg  160.835 -1.8303 0.774425
LeftFoot  -49.4348 -3.88043 -8.25642
LeftToes  -10.5425 2.03064e-006 1.83538e-008
263
root  -22.7633 6.84754 -16.4934 169.923 0.941971 -168.792
RightUpLeg  -83.3743 -9.98242 11.05
RightLeg  155.927 8.97563 -4.4215
RightFoot  -49.7387 3.14472 7.36932
RightToes  -5.0381 -0.0169393 -0.05241
Spine  26.0753 -3.13546 1.35383
Spine1  38.5843 -16.2948 12.9079
HEad  -94.2571 5.33373 3.38882
LeftShoulder1  -1.94126e-019 -3.10601e-018 -2.51263e-017
LeftArm  0.54335 -66.5893 -90.4802
LeftForeArm  26.4702 -5.89974 -1.02426
LeftHand  -0.480688 -0.172993 9.93869
RightShoulder  -4.96962e-017 0 -2.36833e-017
RightArm  24.6179 63.2052 121.377
RightForeArm  74.4926 79.4718 59.6493
RightHand  -0.465319 1.24466 -8.2775
LeftUpLeg  -85.7445 9.15876 24.0368
LeftLeg  160.808 -1.77441 0.75189
LeftFoot  -49.3816 -3.8548 -8.21116
LeftToes  -10.6255 2.03064e-006 1.83538e-008
264
root  -22.7632 6.86137 -16.5007 169.698 0.90097 -168.824
RightUpLeg  -83.0464 -10.0362 10.9906
RightLeg  155.901 9.00689 -4.44275
RightFoot  -49.8138 3.17423 7.42141
RightToes  -5.09519 -0.01667 -0.0518437
Spine  26.2351 -3.13836 1.35979
Spine1  38.8124 -16.3733 12.9911
HEad  -94.4528 5.20237 3.51445
LeftShoulder1  -1.94126e-019 -3.10601e-018 -2.51263e-017
LeftArm  0.504565 -66.7138 -90.512
LeftForeArm  26.4796 -5.90133 -1.02469
LeftHand  -0.479332 -0.116416 9.96147
RightShoulder  -4.96962e-017 0 -2.36833e-017
RightArm  24.9517 63.4144 121.437
RightForeArm  74.574 79.4872 59.8553
RightHand  -0.467201 1.15603 -8.41554
LeftUpLeg  -85.4454 9.05094 24.0582
LeftLeg  160.772 -1.70979 0.725918
LeftFoot  -49.4069 -3.83424 -8.16182
LeftToes  -10.7694 2.03064e-006 1.83538e-008
265
root  -22.7634 6.86215 -16.4984 169.673 0.861359 -168.829
RightUpLeg  -83.029 -10.0371 10.9659
RightLeg  155.903 9.0271 -4.45283
RightFoot  -49.8249 3.18892 7.45144
RightToes  -4.91328 -0.0164501 -0.051335
Spine  26.2326 -3.14095 1.36473
Spine1  38.8069 -16.3735 12.9962
HEad  -94.5441 5.20125 3.71843
LeftShoulder1  -1.94126e-019 -3.10601e-018 -2.51263e-017
LeftArm  0.465654 -66.7078 -90.4233
LeftForeArm  26.4949 -5.8114 -1.009
LeftHand  -0.478201 -0.0543779 9.97882
RightShoulder  -4.96962e-017 0 -2.36833e-017
RightArm  24.9666 63.3837 121.462
RightForeArm  74.9156 79.511 59.9704
RightHand  -0.462491 1.17547 -8.30904
LeftUpLeg  -85.4853 9.07128 24.0343
LeftLeg  160.754 -1.67551 0.712059
LeftFoot  -49.381 -3.81262 -8.11993
LeftToes  -10.7763 2.03064e-006 1.83538e-008
266
root  -22.7841 6.87161 -16.5126 169.404 0.661667 -168.856
RightUpLeg  -82.5657 -10.312 10.6264
RightLeg  155.923 8.86965 -4.36752
RightFoot  -49.9811 3.17667 7.4004
RightToes  -5.00662 -0.016285 -0.0509076
Spine  26.4182 -3.18893 1.39507
Spine1  39.0988 -16.4431 13.0027
HEad  -94.6221 5.22931 3.92521
LeftShoulder1  -1.94126e-019 -3.10601e-018 -2.51263e-017
LeftArm  0.400927 -66.8632 -90.3886
LeftForeArm  26.4798 -5.72001 -0.99251
LeftHand  -0.477871 -0.139563 10.001
RightShoulder  -4.96962e-017 0 -2.36833e-017
RightArm  25.1677 63.5533 121.699
RightForeArm  74.3142 79.4323 59.0696
RightHand  -0.468877 1.31283 -8.26042
LeftUpLeg  -85.2526 8.76634 23.8028
LeftLeg  160.746 -1.77451 0.7542
LeftFoot  -49.4757 -3.84328 -8.16827
LeftToes  -10.6827 2.03064e-006 1.83538e-008
